<?xml version="1.0" encoding="UTF-8" standalone="no"?>
<!DOCTYPE svg PUBLIC "-//W3C//DTD SVG 1.1//EN" "http://www.w3.org/Graphics/SVG/1.1/DTD/svg11.dtd">
<svg width="100%" height="100%" viewBox="0 0 16 16" version="1.1" xmlns="http://www.w3.org/2000/svg" xmlns:xlink="http://www.w3.org/1999/xlink" xml:space="preserve" xmlns:serif="http://www.serif.com/" style="fill-rule:evenodd;clip-rule:evenodd;stroke-linejoin:round;stroke-miterlimit:2;">
    <g transform="matrix(1,0,0,1,-250.401,-451.703)">
        <g transform="matrix(0.0429382,0,0,0.04,237.729,447.703)">
            <g transform="matrix(0.978259,0,0,0.965717,14.5178,17.1416)">
                <path d="M520.56,110.308C520.56,110.308 632.557,406.832 661.16,482.56C662.632,486.459 662.22,490.898 660.063,494.399C657.905,497.899 654.284,500 650.408,500C634.531,500 611.627,500 598.908,500C593.211,500 588.078,496.258 585.914,490.528C567.201,440.983 481.432,213.902 481.432,213.902L520.56,110.308Z" style="fill:url(#_Linear1);"/>
            </g>
            <path d="M509.044,100C512.927,100 516.554,102.077 518.717,105.54C520.879,109.002 521.291,113.393 519.816,117.249C493.592,185.789 397.21,437.699 377.075,490.324C374.835,496.178 369.524,500 363.628,500C348.379,500 319.087,500 304.234,500C302.196,500 300.293,498.91 299.158,497.093C298.024,495.276 297.807,492.972 298.581,490.949C318.349,439.282 416.919,181.653 442.229,115.502C445.817,106.123 454.327,100 463.772,100C476.849,100 495.497,100 509.044,100Z" style="fill:rgb(24,195,183);"/>
        </g>
    </g>
    <defs>
        <linearGradient id="_Linear1" x1="0" y1="0" x2="1" y2="0" gradientUnits="userSpaceOnUse" gradientTransform="matrix(186.314,0,0,389.692,481.432,305.154)"><stop offset="0" style="stop-color:rgb(24,195,183);stop-opacity:1"/><stop offset="0.53" style="stop-color:rgb(55,202,192);stop-opacity:1"/><stop offset="1" style="stop-color:rgb(163,228,223);stop-opacity:1"/></linearGradient>
    </defs>
</svg>
